<svg xmlns="http://www.w3.org/2000/svg" width="17.905" height="16.525" viewBox="0 0 17.905 16.525">
  <path id="Icon_ionic-logo-bitbucket" data-name="Icon ionic-logo-bitbucket" d="M20.8,4.509A.7.7,0,0,0,20.7,4.5H3.956a.579.579,0,0,0-.581.581.419.419,0,0,0,.009.1l2.436,15.17a.826.826,0,0,0,.263.478h0a.752.752,0,0,0,.5.194H18.265a.575.575,0,0,0,.572-.495l1.45-9.145H14.908l-.689,4.131H10.433l-.96-5.461H20.5l.775-4.867A.6.6,0,0,0,20.8,4.509Z" transform="translate(-3.375 -4.5)" fill="#707070"/>
</svg>
